<?xml version="1.0" standalone="no"?>
<!DOCTYPE svg PUBLIC "-//W3C//DTD SVG 20010904//EN"
 "http://www.w3.org/TR/2001/REC-SVG-20010904/DTD/svg10.dtd">
<svg version="1.0" xmlns="http://www.w3.org/2000/svg"
 width="200.000000pt" height="200.000000pt" viewBox="0 0 200.000000 200.000000"
 preserveAspectRatio="xMidYMid meet">
<metadata>
Created by potrace 1.15, written by Peter Selinger 2001-2017
</metadata>
<g transform="translate(0.000000,200.000000) scale(0.100000,-0.100000)"
fill="#000000" stroke="none">
<path d="M0 1000 l0 -1000 1000 0 1000 0 0 1000 0 1000 -1000 0 -1000 0 0
-1000z m1405 820 c203 -29 389 -204 425 -399 13 -70 13 -772 0 -842 -15 -81
-65 -173 -132 -245 -76 -80 -187 -139 -293 -154 -90 -12 -667 -12 -765 0 -199
26 -374 181 -425 375 -22 87 -22 803 0 890 50 189 228 350 416 374 92 12 691
12 774 1z"/>
<path d="M599 1667 c-125 -42 -199 -114 -241 -235 -22 -65 -23 -77 -23 -432 0
-355 1 -367 23 -432 43 -123 124 -200 253 -238 60 -18 96 -20 412 -20 315 0
350 2 409 20 130 40 212 120 251 244 21 68 22 87 22 426 0 339 -1 358 -22 426
-39 124 -121 204 -251 244 -59 18 -93 20 -416 19 -335 0 -354 -1 -417 -22z
m921 -132 c42 -22 58 -80 36 -127 -35 -73 -135 -77 -172 -7 -47 92 44 182 136
134z m-333 -165 c90 -41 161 -113 206 -207 29 -62 32 -77 32 -163 0 -86 -3
-101 -32 -162 -129 -273 -472 -332 -670 -114 -60 66 -92 129 -106 212 -34 200
89 391 298 461 24 7 72 12 120 10 66 -3 93 -9 152 -37z"/>
<path d="M955 1261 c-46 -12 -90 -37 -126 -73 -99 -100 -99 -276 1 -376 56
-56 105 -76 190 -76 57 0 85 5 116 22 96 50 148 134 148 242 0 107 -52 193
-145 241 -43 22 -138 32 -184 20z"/>
</g>
</svg>
