<?xml version="1.0" standalone="no"?>
<!DOCTYPE svg PUBLIC "-//W3C//DTD SVG 20010904//EN"
 "http://www.w3.org/TR/2001/REC-SVG-20010904/DTD/svg10.dtd">
<svg version="1.0" xmlns="http://www.w3.org/2000/svg"
 width="200.000000pt" height="200.000000pt" viewBox="0 0 200.000000 200.000000"
 preserveAspectRatio="xMidYMid meet">
<metadata>
Created by potrace 1.15, written by Peter Selinger 2001-2017
</metadata>
<g transform="translate(0.000000,200.000000) scale(0.100000,-0.100000)"
fill="#000000" stroke="none">
<path d="M0 1000 l0 -1000 1000 0 1000 0 0 1000 0 1000 -1000 0 -1000 0 0
-1000z m1227 879 c241 -63 457 -240 573 -469 75 -148 108 -339 89 -523 -37
-379 -303 -691 -670 -788 -119 -32 -319 -32 -438 0 -367 97 -633 409 -670 788
-29 287 57 544 248 747 134 140 333 243 517 266 97 12 262 2 351 -21z"/>
<path d="M845 1845 c-397 -73 -694 -436 -695 -850 0 -296 131 -549 377 -728
55 -40 194 -107 222 -107 29 0 41 33 41 109 l0 79 -77 -1 c-47 -1 -88 4 -103
12 -44 24 -91 75 -116 127 -13 28 -46 72 -74 98 -53 50 -56 66 -13 66 44 0 90
-30 137 -90 60 -78 92 -94 174 -87 67 5 82 15 82 53 0 12 9 33 20 47 26 32 25
37 -4 37 -14 0 -62 12 -107 26 -72 23 -90 33 -139 83 -77 77 -102 142 -108
282 -4 94 -2 112 19 160 12 30 30 65 38 78 11 18 16 53 16 125 1 56 5 109 9
119 13 29 66 20 157 -26 l86 -43 106 15 c94 12 120 12 214 0 l106 -15 86 43
c47 24 99 43 117 43 30 0 33 -3 44 -51 8 -31 10 -78 7 -117 -5 -53 -3 -69 11
-91 10 -14 29 -50 41 -80 20 -48 23 -67 19 -160 -7 -159 -57 -262 -158 -326
-41 -26 -159 -65 -196 -65 -29 0 -29 0 -1 -47 20 -34 22 -55 27 -211 6 -218 5
-216 134 -158 308 141 507 452 506 794 -1 303 -145 570 -398 739 -164 110
-401 156 -607 118z"/>
</g>
</svg>
