<?xml version="1.0" standalone="no"?>
<!DOCTYPE svg PUBLIC "-//W3C//DTD SVG 20010904//EN"
 "http://www.w3.org/TR/2001/REC-SVG-20010904/DTD/svg10.dtd">
<svg version="1.0" xmlns="http://www.w3.org/2000/svg"
 width="150.000000pt" height="150.000000pt" viewBox="0 0 150.000000 150.000000"
 preserveAspectRatio="xMidYMid meet">
<metadata>
Created by potrace 1.15, written by Peter Selinger 2001-2017
</metadata>
<g transform="translate(0.000000,150.000000) scale(0.100000,-0.100000)"
fill="#000000" stroke="none">
<path d="M0 750 l0 -750 750 0 750 0 0 750 0 750 -750 0 -750 0 0 -750z m930
678 c25 -5 87 -30 139 -55 79 -38 108 -59 181 -131 73 -73 95 -102 134 -182
59 -122 80 -222 73 -350 -6 -114 -26 -190 -75 -290 -51 -105 -195 -250 -302
-303 -209 -103 -447 -102 -654 5 -95 49 -220 168 -274 260 -75 127 -110 293
-93 443 36 311 279 567 586 614 68 11 218 5 285 -11z"/>
<path d="M580 1387 c-127 -39 -197 -81 -291 -176 -70 -70 -94 -102 -128 -172
-96 -200 -95 -396 5 -598 37 -74 62 -110 118 -165 100 -99 245 -180 290 -163
12 5 16 21 16 71 l0 64 -70 4 c-83 4 -113 23 -152 94 -15 27 -43 65 -62 85
-43 42 -44 49 -10 49 36 0 76 -26 104 -68 31 -45 76 -72 118 -72 47 0 69 15
89 58 9 20 19 40 21 45 2 4 -6 7 -17 7 -11 0 -50 11 -87 24 -112 41 -168 113
-186 238 -11 83 2 161 36 211 19 28 22 43 18 85 -2 28 -1 67 2 86 6 33 10 36
42 36 19 0 62 -14 95 -30 59 -31 61 -31 141 -20 57 8 105 8 167 1 85 -11 87
-10 145 19 32 17 74 30 92 30 30 0 34 -3 44 -41 7 -24 9 -63 5 -91 -6 -39 -4
-53 10 -68 27 -30 44 -90 45 -161 1 -169 -85 -279 -242 -310 l-56 -11 19 -32
c16 -26 19 -51 19 -157 0 -155 5 -163 83 -135 77 27 178 98 248 174 65 71 137
205 158 294 16 68 14 243 -4 313 -28 111 -92 222 -175 305 -138 137 -262 190
-455 196 -104 4 -130 1 -195 -19z"/>
</g>
</svg>
