<?xml version="1.0" standalone="no"?>
<!DOCTYPE svg PUBLIC "-//W3C//DTD SVG 20010904//EN"
 "http://www.w3.org/TR/2001/REC-SVG-20010904/DTD/svg10.dtd">
<svg version="1.0" xmlns="http://www.w3.org/2000/svg"
 width="512.000000pt" height="512.000000pt" viewBox="0 0 512.000000 512.000000"
 preserveAspectRatio="xMidYMid meet">
<metadata>
Created by potrace 1.15, written by Peter Selinger 2001-2017
</metadata>
<g transform="translate(0.000000,512.000000) scale(0.100000,-0.100000)"
fill="#000000" stroke="none">
<path d="M1235 4970 c-308 -17 -506 -85 -696 -238 -216 -175 -344 -422 -378
-725 -15 -135 -15 -2778 0 -2902 39 -317 171 -557 408 -739 120 -92 271 -158
443 -191 127 -25 499 -34 1438 -34 1087 0 1540 10 1670 37 237 50 391 133 552
300 140 145 222 301 270 508 l22 99 4 1410 c2 1004 0 1439 -8 1509 -32 281
-128 484 -316 670 -156 155 -358 249 -619 287 -93 14 -2557 22 -2790 9z m2277
-662 c390 -107 688 -404 796 -793 l27 -100 0 -855 0 -855 -27 -97 c-108 -391
-404 -688 -793 -796 l-100 -27 -855 0 -855 0 -100 27 c-389 108 -685 405 -793
796 l-27 97 0 855 0 855 27 97 c116 422 454 735 875 812 64 12 223 14 903 13
l825 -2 97 -27z"/>
<path d="M1721 4029 c-290 -58 -521 -269 -613 -559 l-23 -75 0 -835 0 -835 23
-75 c84 -266 276 -458 542 -542 l75 -23 835 0 835 0 75 23 c266 84 458 276
542 542 l23 75 0 835 0 835 -23 75 c-83 264 -269 451 -537 541 l-70 24 -820 2
c-451 0 -840 -3 -864 -8z m1906 -305 c47 -23 100 -86 113 -136 34 -125 -55
-252 -186 -265 -141 -15 -266 132 -224 264 42 131 178 193 297 137z m-822
-318 c291 -87 512 -308 601 -601 25 -82 28 -104 28 -245 0 -141 -3 -163 -28
-245 -89 -293 -308 -512 -601 -601 -82 -25 -104 -28 -245 -28 -141 0 -163 3
-245 28 -293 89 -512 308 -601 601 -25 81 -28 105 -28 245 -1 143 1 162 27
245 93 295 311 514 597 599 114 33 125 35 275 31 106 -2 147 -8 220 -29z"/>
<path d="M2482 3139 c-232 -30 -427 -200 -488 -426 -20 -75 -20 -231 0 -306
54 -197 216 -359 413 -413 75 -20 231 -20 306 0 116 32 224 103 304 201 86
106 124 218 124 365 0 109 -18 187 -62 270 -117 220 -350 341 -597 309z"/>
</g>
</svg>
